<?xml version="1.0" encoding="UTF-8"?>
<svg id="Layer_1" xmlns="http://www.w3.org/2000/svg" viewBox="0 0 600 450">
  <defs>
    <style>
      .cls-1 {
        fill: #e00007;
      }
    </style>
  </defs>
  <g id="Layer_x5F_1">
    <g id="_1595920304336">
      <rect width="600" height="450"/>
      <g>
        <path class="cls-1" d="M300,86.73c38.18,0,72.75,15.48,97.77,40.5,25.02,25.02,40.5,59.59,40.5,97.77,0,26.54-7.48,51.34-20.45,72.39l-5.5-.7c13.24-20.7,20.92-45.3,20.92-71.7,0-36.79-14.91-70.1-39.02-94.21s-57.42-39.02-94.21-39.02-70.1,14.91-94.21,39.02c-24.11,24.11-39.02,57.42-39.02,94.21,0,26.4,7.68,51,20.92,71.7-.16.03-.32.06-.48.08l-4.89.83c-13.05-21.1-20.58-45.98-20.58-72.62,0-38.18,15.48-72.75,40.5-97.77,25.02-25.02,59.59-40.5,97.77-40.5h0ZM402.38,317.94c-.22.24-.44.48-.66.72v-.97l.66.25h0ZM383.25,335.41c-3.81,2.88-7.78,5.57-11.88,8.05l-.02-5.9c1.1-.7,2.19-1.41,3.27-2.14h8.64ZM226.51,342.14c-3.35-2.11-6.61-4.36-9.76-6.74h8.64c.37.25.75.5,1.12.75v5.99h0ZM196.39,316.56c-.24-.27-.48-.55-.72-.83l.72-.27v1.09h0Z"/>
        <path class="cls-1" d="M299.16,134.21c25.04,0,47.71,10.15,64.12,26.56,16.41,16.41,26.56,39.08,26.56,64.12,0,16.72-4.53,32.39-12.42,45.84l-1.02-1.99h0c-.52-1.02-1.07-2.26-1.62-3.61,6.4-12,10.02-25.69,10.02-40.24,0-23.65-9.59-45.07-25.09-60.57s-36.91-25.09-60.57-25.09-45.07,9.59-60.57,25.09c-15.5,15.5-25.09,36.91-25.09,60.57,0,14.42,3.56,28,9.85,39.92-.48,1.23-1.01,2.45-1.58,3.65-.32.68-.66,1.36-1.01,2.03-7.81-13.4-12.29-28.98-12.29-45.61,0-25.04,10.15-47.71,26.56-64.12,16.41-16.41,39.08-26.56,64.12-26.56h0ZM361.15,291.08c-.08.07-.16.15-.24.22l-.06-6.99c.11-.12.23-.24.34-.35-.02,2.27-.03,4.67-.04,7.12h0ZM236.9,290.82c-.12-.12-.24-.23-.37-.35-.01-.88-.02-1.87-.04-2.94-.02-1.35-.04-2.82-.06-4.32.15.16.31.33.46.49v7.11h0Z"/>
        <path class="cls-1" d="M206.63,261.32c.23.67.31,1.36.25,2.06-.06.7-.24,1.37-.53,1.99-.3.62-.71,1.18-1.22,1.67-.52.49-1.13.85-1.85,1.1l-13.25,4.52c-.67.23-1.36.31-2.06.25s-1.37-.24-1.99-.53c-.62-.3-1.18-.71-1.67-1.22-.49-.52-.85-1.13-1.1-1.85l-3.92-11.51c-.23-.67-.32-1.36-.26-2.08.05-.72.23-1.39.53-2.01.3-.62.71-1.18,1.22-1.67.52-.49,1.13-.85,1.85-1.1l3.04-1.04,2.19,6.42-1.04.35c-.4.14-.7.4-.89.79s-.22.78-.08,1.19l2.03,5.96c.14.4.4.69.78.87s.78.2,1.18.06l9.23-3.15c.4-.14.7-.39.89-.77.2-.38.22-.77.09-1.17l-2.03-5.96c-.14-.4-.4-.7-.79-.89-.39-.19-.78-.22-1.19-.08l-1.04.35-2.19-6.42,3.04-1.04c.71-.24,1.42-.33,2.13-.26.71.07,1.37.26,1.99.57.62.31,1.17.74,1.65,1.27.48.53.84,1.13,1.06,1.8l3.92,11.51h0ZM174.96,221.99c-.02-.71.1-1.39.36-2.06.26-.67.63-1.26,1.09-1.77.47-.51,1.02-.92,1.66-1.24.64-.31,1.33-.48,2.09-.51l13.99-.44c.71-.02,1.39.1,2.04.36.66.26,1.24.63,1.75,1.09.51.47.92,1.03,1.24,1.68.32.65.48,1.35.51,2.11l.43,13.67c.02.71-.1,1.39-.36,2.04-.26.66-.63,1.24-1.09,1.75-.47.51-1.02.92-1.66,1.24-.64.31-1.33.48-2.09.51l-13.99.44c-.71.02-1.39-.1-2.05-.36-.66-.26-1.24-.63-1.75-1.09-.51-.47-.92-1.02-1.24-1.66-.31-.64-.48-1.33-.51-2.09l-.43-13.67h0ZM182.5,223.14c-.42.01-.78.18-1.08.49-.3.32-.44.69-.43,1.11l.24,7.81c.01.4.18.75.49,1.05.32.3.69.44,1.11.43l9.75-.31c.42-.01.78-.18,1.08-.49.3-.32.44-.67.43-1.07l-.24-7.81c-.01-.42-.18-.78-.49-1.08-.32-.3-.69-.44-1.11-.42l-9.75.31h0ZM182.87,180.11l23.83,6.68-2.25,8.03-17.77,4.71,15.25,4.27-1.83,6.54-23.83-6.68,2.25-8.03,17.77-4.71-15.25-4.27,1.83-6.54h0ZM211.71,177.2c-.38.59-.87,1.09-1.46,1.48-.59.39-1.22.66-1.9.81-.67.15-1.36.18-2.07.07-.7-.11-1.37-.36-2.01-.77l-11.75-7.61c-.59-.38-1.09-.87-1.48-1.46-.39-.59-.66-1.22-.82-1.9-.15-.67-.18-1.36-.07-2.07.11-.7.36-1.37.77-2.01l6.61-10.21c.38-.59.87-1.09,1.47-1.49.6-.4,1.23-.68,1.91-.83.67-.15,1.36-.18,2.07-.07.7.11,1.37.36,2.01.77l2.7,1.75-3.69,5.7-.92-.6c-.36-.23-.75-.3-1.17-.21-.42.09-.75.31-.98.67l-3.42,5.28c-.23.36-.3.74-.2,1.15.1.41.32.74.68.97l8.19,5.3c.36.23.74.31,1.16.22.42-.08.74-.3.97-.66l3.42-5.28c.23-.36.3-.75.21-1.17-.09-.42-.31-.75-.67-.98l-.92-.6,3.69-5.7,2.7,1.75c.63.41,1.14.91,1.53,1.51.38.6.64,1.24.78,1.92.14.68.14,1.37.02,2.08-.12.71-.37,1.36-.76,1.95l-6.61,10.21h0ZM222.04,127.56c.53-.46,1.14-.8,1.81-1.01.67-.21,1.36-.3,2.05-.26s1.36.21,2.01.5c.65.3,1.22.73,1.71,1.3l3.95,4.53c.43.5.76,1.05.97,1.66.22.61.32,1.23.31,1.86-.01.63-.13,1.26-.37,1.89-.24.63-.59,1.21-1.06,1.74l8.97,2.88-5.55,4.83-8.9-2.85-4.08,3.55,5.24,6.03-5.15,4.48-16.24-18.67,14.32-12.46h0ZM225.89,134.14c-.28-.32-.63-.5-1.05-.54-.42-.04-.79.08-1.12.36l-6.96,6.06,3.2,3.68,6.96-6.06c.32-.28.49-.63.51-1.05.02-.42-.11-.8-.39-1.12l-1.16-1.33h0ZM266.04,130.85l-19.45,8.8-10.2-22.55,19.45-8.8,2.45,5.41-13.24,5.99,1.34,2.96,10.76-4.87,2.46,5.44-10.76,4.87,1.5,3.32,13.24-5.99,2.45,5.41h0ZM289.52,106.52l-8.31,1.53,3.41,18.49-6.67,1.23-3.41-18.49-8.38,1.55-1.08-5.84,23.36-4.31,1.08,5.84ZM318.23,126.72l-21.29-1.62,1.88-24.67,21.29,1.62-.45,5.92-14.49-1.1-.25,3.24,11.77.9-.45,5.96-11.77-.9-.28,3.63,14.49,1.1-.45,5.92h0ZM340.52,134.44c-.63-.32-1.18-.75-1.64-1.3-.46-.55-.8-1.15-1.03-1.81-.22-.65-.32-1.34-.29-2.05.03-.71.21-1.4.55-2.08l1.83-3.63,6.06,3.06-.88,1.74c-.19.38-.22.77-.08,1.19.13.41.39.71.77.9l2.97,1.5c.38.19.77.22,1.16.09.4-.13.69-.38.88-.76l7.8-15.43,6.09,3.08-8.74,17.29c-.32.63-.75,1.17-1.3,1.62-.55.45-1.15.79-1.81,1-.66.22-1.36.31-2.08.28-.72-.03-1.41-.22-2.06-.55l-8.2-4.15h0ZM375.44,126.1l4.9,4.7-11.96,12.48c-.29.31-.44.67-.43,1.08,0,.42.17.77.47,1.06l5.64,5.4c.31.29.67.44,1.08.43.42,0,.77-.17,1.06-.47l11.96-12.48,4.93,4.72-13.4,13.99c-.49.51-1.06.9-1.71,1.17-.65.27-1.32.42-2.02.44-.69.02-1.38-.09-2.06-.33-.68-.24-1.29-.63-1.84-1.15l-9.88-9.46c-.54-.52-.95-1.11-1.21-1.77-.26-.66-.4-1.34-.41-2.03,0-.69.11-1.37.36-2.03.24-.66.61-1.25,1.1-1.76l13.4-13.99h0ZM413.13,173.95l-21.39,12.45-4.2-7.21,8.99-16.03-13.69,7.97-3.41-5.87,21.39-12.45,4.2,7.21-8.99,16.03,13.69-7.97,3.41,5.87h0ZM402.75,205.99c.09.41.32.73.67.95.35.22.74.28,1.15.19l1.58-.37-1.26-5.48,5.3-1.22,2.72,11.78-8.82,2.04c-.71.16-1.42.18-2.11.03-.7-.14-1.34-.4-1.94-.77s-1.1-.84-1.52-1.41c-.42-.57-.71-1.21-.88-1.92l-2.98-12.92c-.16-.69-.17-1.38-.04-2.08.13-.7.37-1.34.73-1.95.36-.6.82-1.12,1.38-1.55.57-.43,1.21-.73,1.95-.9l13.61-3.14c.69-.16,1.39-.17,2.09-.05.71.13,1.35.37,1.95.73.59.36,1.1.83,1.54,1.4.44.58.74,1.23.91,1.97l2.93,12.67c.16.69.17,1.39.05,2.09-.13.71-.37,1.36-.73,1.95-.36.59-.82,1.1-1.39,1.54-.57.43-1.22.73-1.95.9l-2.79.64-1.53-6.61.86-.2c.41-.09.73-.33.95-.69.22-.36.28-.75.18-1.17l-1.61-6.96c-.09-.41-.32-.73-.67-.95-.35-.22-.74-.28-1.15-.19l-9.78,2.26c-.41.1-.73.32-.95.67-.22.35-.28.74-.19,1.15l1.74,7.54h0ZM404.52,227.79l-1.09,14.35-5.92-.45,1.61-21.15,24.67,1.88-.52,6.8-18.75-1.43h0ZM390.22,266.15l6.6-20.3,23.53,7.65-6.6,20.3-5.65-1.84,4.49-13.82-3.09-1.01-3.65,11.23-5.68-1.85,3.65-11.23-3.46-1.13-4.49,13.82-5.65-1.84h0Z"/>
        <path class="cls-1" d="M273.82,269.25l-5.58-6.11c5.14-.36,10.23.68,15.3,2.29-4.15-3.65-8.74-6.45-13.91-8.13,2.7-1.21,5.92-1.62,9.63-1.26l-3.52-2.72-1.06-6.98,18.27,18,6.58-3.95-5.08-2.19c2.46-4.37,5.68-5.86,9.37-7.23-2.16-2.31-4.95-3.89-8.57-4.56l3.95-3.49-1.43-2.19c-.94-2.13-.77-4.31.56-6.54l36.01,36.01,1.64-1.26-4.4-4.06c-.25-1.66-.5-3.31-.75-4.97.69-1.45,2.07-2.27,4.32-2.29-1.29-1.11-2.73-1.76-4.43-1.58l2.86-3.06,10.39,9.82,2.68-2.45-14.27-14.2-8.44,7.51-25.27-24.76-19.03,16.91-5.18-4.84-23,19.9c17.41,28.85,60.97,30.66,79.32,13.72-15.78,5.06-39.66,8.77-56.96-5.33h0Z"/>
        <path class="cls-1" d="M279,161.24h40.12c3.94,1.81,7.27,1.6,11.91,4.39,16.01,9.59,18.11,26.7,11.57,44.28-.82,2.21-1.42,3.44-1.78,4.23,3.71,4.64,6.66,9.91,8.67,15.63,1.71,8.8,1.27,15.99-.66,22.07l-13.89-13.83c-.2-3.93-1.79-7.89-4.5-11.22-19.09-23.37-52.94-13.83-62.15,0-2.67,4.02-4.3,8.55-4.25,12.87l-14.6,12.63c-2.05-6.17-2.56-13.5-.81-22.53,2.02-5.75,4.99-11.05,8.73-15.7-.38-.78-1.06-2.06-1.97-4.57-1.36-3.77-2.57-8.06-3.16-12.47-1.31-9.91,1.75-18.94,6.73-24.43,9.5-10.46,12.8-8.05,20.04-11.37h0ZM328.66,202.42c2.75-5.45,3.37-15.3-3.21-21.5-6.05-5.69-17-3.99-26.66-3.99s-20.12-1.76-26.38,4.27c-6.3,6.07-5.7,15.93-2.71,21.62l.63,1.89c13.8-9.34,41.99-8.59,57.79-.16l.63-1.89-.08-.24h0Z"/>
        <path class="cls-1" d="M231.8,252.22c0,1.53-.72,3.8-1.02,5.21-1.94,9.34-6.3,18.07-12.11,25.54l-8.7,8.7c-5.99,5-13.84,8.69-21.92,10.07.96,1.4,1.95,2.79,2.96,4.15l.29-.06v.45c1.82,2.44,3.73,4.81,5.71,7.11v-9.23c.13-.05.25-.1.38-.15.85-.34,1.3-.57,2-.86.69-.29,1.37-.58,2.04-.89v16.03c4.08,4.31,8.44,8.35,13.05,12.09h17.07v14.6c3.37,1.97,6.84,3.81,10.39,5.49v-20.09h114.25v20.97c3.48-1.58,6.87-3.31,10.18-5.17l-.06-15.8h19.22c3.91-3.17,7.63-6.56,11.16-10.14v-17.93c.71.32,1.44.62,2.23.92.81.31,1.49.58,2.18.84v2.22s0,9.25,0,9.25c1.98-2.2,3.88-4.47,5.71-6.8v-3.13l2.03.47c1.07-1.44,2.11-2.9,3.13-4.38l-5.41-.68c-6.27-1.35-13.23-5.17-18.34-9.18-5.96-4.68-10.33-10.29-14.19-16.71l-2.11-4.12c-2.44-4.8-5.62-13.91-5.62-19.04v-9.61h-10.13v10.39c0,1.02-.31,1.58-.54,2.58-1.14,5.02-3.49,9.91-5.78,14.48-.23.45-.3.57-.54,1.02-.25.45-.41.76-.63,1.18l-8.76,12.01-6.68,6.31c-6.69,5.44-14.25,9.01-22.63,11.13-8.7,2.2-19.61,1.71-28.19-1.44-.84-.31-1.59-.55-2.5-.88-3.87-1.38-7.67-3.51-11.05-5.83-3.88-2.66-7.96-5.68-10.89-9.36-5.96-7.46-9.2-11.4-12.94-20.81-4.09-10.28-3.12-11.74-3.12-22.33h-10.13v11.43h0ZM206.9,299.31c1.62-1,3.17-2.08,4.65-3.24v26.77h-4.4c.02-7.3.03-20.82-.19-22.93-.02-.2-.04-.4-.05-.61h0ZM217.02,291.2c1.62-1.63,3.16-3.36,4.65-5.18v36.82h-4.44l-.21-31.64h0ZM227.13,278.3c1.36-2.32,2.56-4.76,3.56-7.2.35-.86.42-1.46,1.11-1.74-.71,3.04-.27,17.93-.26,23.12v30.37s-4.41,0-4.41,0v-44.54h0ZM390.98,322.79h-4.42s0-26.64,0-26.64c1.26,1.01,2.65,2.01,4.42,3.09,0,3.9,0,16.41,0,23.55h0ZM380.85,322.81h-4.44c-.24-9.73.01-32.53.03-36.63.44.56.94,1.19,1.52,1.91.47.59.91.89,1.37,1.48.66.83.46.65,1.25,1.34l.27.23v31.67h0ZM370.72,322.84h-4.15c-.83-2.01-.26-46.41-.26-53.48.94.69,1.33,2.54,1.82,3.63.54,1.23,1.16,2.42,1.86,3.59l.73,1.21v45.05h0ZM246.09,307.32v15.52h-4.15v-55.83c.32.36.35.39.6.96l1.51,3.16c.48,1.12,1.33,2.6,2.3,4.16-.03,10.12-.25,22.28-.25,32.03h0ZM252.06,322.85v-24.09c0-4.26-.23-10.71-.26-15.44l2.14,2.59c.71.69.82,1,1.43,1.69l.84.72v34.53h-4.15ZM302.17,322.85v-15.45c1.07-.09,2.23-.21,3.39-.36,0,.13-.01.31-.01.55v15.26h-3.38ZM296.46,307.44v15.41h-4.15v-15.82c1.4.19,2.79.33,4.15.41ZM286.59,305.97v16.88h-4.41v-18.08c1.45.45,2.93.85,4.41,1.2h0ZM311.52,322.85v-16.86c.54-.12,1.03-.25,1.48-.37l2.05-.51c.22-.07.45-.14.67-.22-.14,3.74-.1,12.52-.07,17.96h-4.13ZM321.44,322.85c-.1-5.75-.07-15.63-.05-20.13,1.49-.65,2.97-1.36,4.42-2.13v22.26h-4.37ZM276.47,302.7v20.15h-4.41v-22.24c1.4.75,2.88,1.45,4.41,2.09ZM331.51,322.85v-25.66c1.53-1.02,3-2.11,4.41-3.25v28.91h-4.41ZM266.34,297.02v25.82h-4.48c-.22-8.34.04-25.93.06-29.62l4.42,3.8h0ZM341.64,322.85v-34.14l.06-.07,4.35-5.52v39.73h-4.41ZM351.77,322.85v-47.64c.11-.18.22-.37.34-.58,2.16-3.87,2.01-3.89,3.59-7.32l.49,55.53h-4.41,0Z"/>
        <path class="cls-1" d="M300,81c39.76,0,75.76,16.12,101.82,42.18s42.18,62.06,42.18,101.82-16.12,75.76-42.18,101.82c-26.06,26.06-62.06,42.18-101.82,42.18s-75.76-16.12-101.82-42.18c-26.06-26.06-42.18-62.06-42.18-101.82s16.12-75.76,42.18-101.82,62.06-42.18,101.82-42.18ZM399.69,125.31c-25.51-25.51-60.76-41.29-99.69-41.29s-74.18,15.78-99.69,41.29c-25.51,25.51-41.29,60.76-41.29,99.69s15.78,74.18,41.29,99.69c25.51,25.51,60.76,41.29,99.69,41.29s74.18-15.78,99.69-41.29c25.51-25.51,41.29-60.76,41.29-99.69s-15.78-74.18-41.29-99.69h0Z"/>
        <path class="cls-1" d="M250.09,343.61h3.14c.32,0,.59.26.59.59v4.38c0,.32-.26.59-.59.59h-3.14c-.32,0-.59-.26-.59-.59v-4.38c0-.32.26-.59.59-.59ZM338.68,333.95h-3.14c-.32,0-.59.27-.59.59v10.54h-69.91v-10.54c0-.32-.26-.59-.59-.59h-3.14c-.32,0-.59.26-.59.59v23.71c0,.32.26.59.59.59h3.14c.32,0,.59-.26.59-.59v-10.54h69.91v10.54c0,.32.26.59.59.59h3.14c.32,0,.59-.26.59-.59v-23.71c0-.32-.27-.59-.59-.59ZM344.3,336.95h-3.14c-.32,0-.59.26-.59.59v17.71c0,.32.26.59.59.59h3.14c.32,0,.59-.26.59-.59v-17.71c0-.32-.27-.59-.59-.59ZM349.92,343.61h-3.14c-.32,0-.59.26-.59.59v4.38c0,.32.26.59.59.59h3.14c.32,0,.59-.26.59-.59v-4.38c0-.32-.27-.59-.59-.59ZM255.7,336.95h3.14c.32,0,.59.26.59.59v17.71c0,.32-.26.59-.59.59h-3.14c-.32,0-.59-.26-.59-.59v-17.71c0-.32.26-.59.59-.59Z"/>
        <path class="cls-1" d="M274.6,355.29c-.21,0-.31.1-.31.31v.52h2.16v-.52c0-.21-.1-.31-.31-.31h-1.54ZM273.8,359.62c-.21,0-.4-.04-.57-.12-.17-.08-.33-.18-.46-.31-.14-.13-.24-.29-.31-.46-.07-.18-.11-.37-.11-.57v-2.86c0-.2.04-.39.11-.57s.18-.33.31-.47.29-.24.46-.32c.17-.07.37-.11.57-.11h3.07c.2,0,.39.04.57.12.18.08.33.18.47.31.14.13.24.29.31.46.07.18.11.37.11.57v1.97h-4.04v.48c0,.12.04.22.12.3.08.08.18.12.3.12h1.32c.11,0,.21-.04.29-.12.08-.08.12-.18.12-.3v-.1h1.88v.54c0,.2-.04.39-.11.56-.07.18-.18.33-.31.45-.14.13-.29.23-.47.3-.18.07-.37.11-.58.11h-3.05,0ZM281.49,355.29c-.19,0-.29.1-.29.29v.22c0,.2.1.3.29.3h2.35c.2,0,.39.04.57.12.18.08.33.18.47.32.13.13.24.29.31.46.08.18.12.37.12.57v.59c0,.2-.04.39-.12.57-.08.18-.18.33-.31.46-.13.13-.29.24-.47.31-.18.08-.37.12-.57.12h-2.96c-.21,0-.4-.04-.58-.12-.18-.08-.33-.18-.47-.31-.14-.13-.24-.29-.31-.46s-.11-.37-.11-.57v-.44h1.87v.15c0,.19.1.29.29.29h1.58c.09,0,.15-.03.21-.07.05-.05.08-.12.08-.21v-.22c0-.19-.1-.29-.29-.29h-2.35c-.21,0-.4-.04-.57-.13-.17-.09-.33-.2-.46-.34-.14-.14-.24-.3-.31-.49-.07-.18-.11-.38-.11-.59v-.52c0-.2.04-.39.11-.57.07-.18.18-.33.31-.46.14-.13.29-.24.46-.31.17-.08.36-.12.57-.12h2.88c.21,0,.4.04.58.12.18.08.33.18.47.32s.24.29.31.46c.07.18.11.36.11.56v.44h-1.87v-.15c0-.19-.1-.29-.29-.29h-1.51ZM288.84,357.57c0,.12.04.22.12.3.08.08.18.12.3.12h1.11v1.62h-2.02c-.21,0-.4-.04-.57-.12-.17-.08-.33-.18-.46-.31-.14-.13-.24-.29-.32-.46-.07-.18-.11-.37-.11-.57v-2.7h-.94v-1.62h.94v-1.44h1.95v1.44h1.6v1.62h-1.6v2.13h0ZM293.16,359.62h-2.05v-1.73h2.05v1.73ZM300.27,354.53h-2.06v-.77c0-.23.04-.44.13-.64.09-.2.21-.37.36-.51.15-.15.33-.26.52-.35.2-.09.4-.13.61-.13h3.25c.23,0,.44.04.63.13.2.09.37.21.51.36.15.15.26.32.35.52.09.2.13.41.13.62v1.4c0,.23-.04.44-.13.64-.09.2-.21.37-.36.52-.15.15-.32.26-.52.35-.2.09-.4.13-.61.13h-2.44c-.12,0-.22.04-.29.12-.07.08-.11.17-.11.29v.65h4.44v1.75h-6.48v-2.87c0-.23.04-.44.13-.64.09-.2.21-.37.36-.51.15-.15.33-.26.52-.35.2-.09.4-.13.61-.13h2.44c.11,0,.2-.04.27-.11s.11-.16.11-.28v-.45c0-.12-.04-.22-.11-.29-.07-.07-.17-.11-.27-.11h-1.62c-.11,0-.21.04-.28.11-.07.07-.11.17-.11.29v.25h0ZM312.37,357.99c0,.22-.04.43-.13.62-.09.19-.2.36-.35.51-.15.15-.32.26-.52.35-.2.09-.41.14-.63.14h-3.29c-.22,0-.43-.04-.62-.13-.19-.09-.36-.2-.51-.35-.15-.15-.26-.32-.35-.51-.09-.2-.14-.41-.14-.64v-4.22c0-.22.04-.43.13-.62.09-.19.2-.36.35-.51.15-.15.32-.27.51-.36.2-.09.41-.14.64-.14h3.29c.22,0,.43.04.63.13.2.09.37.2.52.35.15.15.26.32.35.52.09.2.13.41.13.64v4.22h0ZM310.32,354.39c0-.13-.05-.24-.14-.33-.09-.09-.2-.13-.32-.13h-1.52c-.13,0-.24.04-.33.13-.09.09-.14.2-.14.33v2.97c0,.13.05.24.14.33.09.09.2.13.33.13h1.52c.12,0,.23-.04.32-.13.09-.09.14-.2.14-.33v-2.97ZM315.57,354.53h-2.06v-.77c0-.23.04-.44.13-.64.09-.2.21-.37.36-.51.15-.15.33-.26.52-.35.2-.09.4-.13.61-.13h3.25c.23,0,.44.04.63.13.2.09.37.21.51.36.15.15.26.32.35.52.09.2.13.41.13.62v1.4c0,.23-.04.44-.13.64-.09.2-.21.37-.36.52-.15.15-.32.26-.52.35-.2.09-.4.13-.61.13h-2.44c-.12,0-.22.04-.29.12-.07.08-.11.17-.11.29v.65h4.44v1.75h-6.48v-2.87c0-.23.04-.44.13-.64.09-.2.21-.37.36-.51.15-.15.33-.26.52-.35.2-.09.4-.13.61-.13h2.44c.11,0,.2-.04.27-.11.07-.07.11-.16.11-.28v-.45c0-.12-.04-.22-.11-.29-.07-.07-.17-.11-.27-.11h-1.62c-.11,0-.21.04-.28.11-.07.07-.11.17-.11.29v.25h0ZM327.67,357.99c0,.22-.04.43-.13.62-.09.19-.2.36-.35.51-.15.15-.32.26-.52.35-.2.09-.41.14-.63.14h-3.29c-.22,0-.43-.04-.62-.13-.19-.09-.36-.2-.51-.35-.15-.15-.26-.32-.35-.51-.09-.2-.14-.41-.14-.64v-4.22c0-.22.04-.43.13-.62.09-.19.2-.36.35-.51.15-.15.32-.27.51-.36.2-.09.41-.14.64-.14h3.29c.22,0,.43.04.63.13.2.09.37.2.52.35.15.15.26.32.35.52.09.2.13.41.13.64v4.22h0ZM325.62,354.39c0-.13-.05-.24-.14-.33-.09-.09-.2-.13-.32-.13h-1.52c-.13,0-.24.04-.33.13-.09.09-.14.2-.14.33v2.97c0,.13.05.24.14.33.09.09.2.13.33.13h1.52c.12,0,.23-.04.32-.13.09-.09.14-.2.14-.33v-2.97Z"/>
      </g>
    </g>
  </g>
</svg>